<?xml version="1.0" encoding="UTF-8" standalone="no"?>
<!DOCTYPE svg PUBLIC "-//W3C//DTD SVG 1.1//EN"
 "http://www.w3.org/Graphics/SVG/1.1/DTD/svg11.dtd">
<!-- Generated by graphviz version 3.0.0 (20220226.1711)
 -->
<!-- Title: dependencies Pages: 1 -->
<svg width="2643pt" height="247pt"
 viewBox="0.00 0.00 2643.00 246.80" xmlns="http://www.w3.org/2000/svg" xmlns:xlink="http://www.w3.org/1999/xlink">
<g id="graph0" class="graph" transform="scale(1 1) rotate(0) translate(4 242.8)">
<title>dependencies</title>
<polygon fill="white" stroke="transparent" points="-4,4 -4,-242.8 2639,-242.8 2639,4 -4,4"/>
<text text-anchor="middle" x="1317.5" y="-8.2" font-family="sans-serif" font-size="14.00">dependencies</text>
<g id="clust1" class="cluster">
<title>cluster_AppModule</title>
<polygon fill="none" stroke="black" stroke-dasharray="1,5" points="8,-32.8 8,-230.8 2627,-230.8 2627,-32.8 8,-32.8"/>
</g>
<g id="clust18" class="cluster">
<title>cluster_AppModule_bootstrap</title>
<polygon fill="none" stroke="black" points="1460,-170.8 1460,-222.8 1530,-222.8 1530,-170.8 1460,-170.8"/>
</g>
<g id="clust16" class="cluster">
<title>cluster_AppModule_imports</title>
<polygon fill="none" stroke="black" points="2350,-40.8 2350,-92.8 2619,-92.8 2619,-40.8 2350,-40.8"/>
</g>
<g id="clust2" class="cluster">
<title>cluster_AppModule_declarations</title>
<polygon fill="none" stroke="black" points="16,-40.8 16,-92.8 2342,-92.8 2342,-40.8 16,-40.8"/>
</g>
<!-- BestuurderComponent -->
<g id="node1" class="node">
<title>BestuurderComponent</title>
<polygon fill="#ffffb3" stroke="black" points="2334.26,-84.8 2191.74,-84.8 2191.74,-48.8 2334.26,-48.8 2334.26,-84.8"/>
<text text-anchor="middle" x="2263" y="-62.6" font-family="Times,serif" font-size="14.00">BestuurderComponent</text>
</g>
<!-- AppModule -->
<g id="node14" class="node">
<title>AppModule</title>
<polygon fill="#8dd3c7" stroke="black" points="1536.66,-149.8 1533.66,-153.8 1512.66,-153.8 1509.66,-149.8 1453.34,-149.8 1453.34,-113.8 1536.66,-113.8 1536.66,-149.8"/>
<text text-anchor="middle" x="1495" y="-127.6" font-family="Times,serif" font-size="14.00">AppModule</text>
</g>
<!-- BestuurderComponent&#45;&gt;AppModule -->
<g id="edge1" class="edge">
<title>BestuurderComponent&#45;&gt;AppModule</title>
<path fill="none" stroke="black" d="M2263,-84.83C2263,-105.57 2263,-136.8 2263,-136.8 2263,-136.8 1546.84,-136.8 1546.84,-136.8"/>
<polygon fill="black" stroke="black" points="1546.84,-133.3 1536.84,-136.8 1546.84,-140.3 1546.84,-133.3"/>
</g>
<!-- DeleteConfirmationSheetComponent -->
<g id="node2" class="node">
<title>DeleteConfirmationSheetComponent</title>
<polygon fill="#ffffb3" stroke="black" points="2173.4,-84.8 1948.6,-84.8 1948.6,-48.8 2173.4,-48.8 2173.4,-84.8"/>
<text text-anchor="middle" x="2061" y="-62.6" font-family="Times,serif" font-size="14.00">DeleteConfirmationSheetComponent</text>
</g>
<!-- DeleteConfirmationSheetComponent&#45;&gt;AppModule -->
<g id="edge2" class="edge">
<title>DeleteConfirmationSheetComponent&#45;&gt;AppModule</title>
<path fill="none" stroke="black" d="M2061,-84.91C2061,-104.14 2061,-131.8 2061,-131.8 2061,-131.8 1547.08,-131.8 1547.08,-131.8"/>
<polygon fill="black" stroke="black" points="1547.08,-128.3 1537.08,-131.8 1547.08,-135.3 1547.08,-128.3"/>
</g>
<!-- Home -->
<g id="node3" class="node">
<title>Home</title>
<polygon fill="#ffffb3" stroke="black" points="1931,-84.8 1877,-84.8 1877,-48.8 1931,-48.8 1931,-84.8"/>
<text text-anchor="middle" x="1904" y="-62.6" font-family="Times,serif" font-size="14.00">Home</text>
</g>
<!-- Home&#45;&gt;AppModule -->
<g id="edge3" class="edge">
<title>Home&#45;&gt;AppModule</title>
<path fill="none" stroke="black" d="M1904,-85.1C1904,-103.07 1904,-127.8 1904,-127.8 1904,-127.8 1546.85,-127.8 1546.85,-127.8"/>
<polygon fill="black" stroke="black" points="1546.85,-124.3 1536.85,-127.8 1546.85,-131.3 1546.85,-124.3"/>
</g>
<!-- HomeComponent -->
<g id="node4" class="node">
<title>HomeComponent</title>
<polygon fill="#ffffb3" stroke="black" points="1858.55,-84.8 1743.45,-84.8 1743.45,-48.8 1858.55,-48.8 1858.55,-84.8"/>
<text text-anchor="middle" x="1801" y="-62.6" font-family="Times,serif" font-size="14.00">HomeComponent</text>
</g>
<!-- HomeComponent&#45;&gt;AppModule -->
<g id="edge4" class="edge">
<title>HomeComponent&#45;&gt;AppModule</title>
<path fill="none" stroke="black" d="M1801,-84.83C1801,-101.2 1801,-122.8 1801,-122.8 1801,-122.8 1546.91,-122.8 1546.91,-122.8"/>
<polygon fill="black" stroke="black" points="1546.91,-119.3 1536.91,-122.8 1546.91,-126.3 1546.91,-119.3"/>
</g>
<!-- NavigationComponent -->
<g id="node5" class="node">
<title>NavigationComponent</title>
<polygon fill="#ffffb3" stroke="black" points="1724.54,-84.8 1581.46,-84.8 1581.46,-48.8 1724.54,-48.8 1724.54,-84.8"/>
<text text-anchor="middle" x="1653" y="-62.6" font-family="Times,serif" font-size="14.00">NavigationComponent</text>
</g>
<!-- NavigationComponent&#45;&gt;AppModule -->
<g id="edge5" class="edge">
<title>NavigationComponent&#45;&gt;AppModule</title>
<path fill="none" stroke="black" d="M1653,-84.99C1653,-99.98 1653,-118.8 1653,-118.8 1653,-118.8 1546.93,-118.8 1546.93,-118.8"/>
<polygon fill="black" stroke="black" points="1546.93,-115.3 1536.93,-118.8 1546.93,-122.3 1546.93,-115.3"/>
</g>
<!-- SearchbarComponent -->
<g id="node6" class="node">
<title>SearchbarComponent</title>
<polygon fill="#ffffb3" stroke="black" points="1563.8,-84.8 1426.2,-84.8 1426.2,-48.8 1563.8,-48.8 1563.8,-84.8"/>
<text text-anchor="middle" x="1495" y="-62.6" font-family="Times,serif" font-size="14.00">SearchbarComponent</text>
</g>
<!-- SearchbarComponent&#45;&gt;AppModule -->
<g id="edge6" class="edge">
<title>SearchbarComponent&#45;&gt;AppModule</title>
<path fill="none" stroke="black" d="M1495,-84.91C1495,-84.91 1495,-103.79 1495,-103.79"/>
<polygon fill="black" stroke="black" points="1491.5,-103.79 1495,-113.79 1498.5,-103.79 1491.5,-103.79"/>
</g>
<!-- TankkaartComponent -->
<g id="node7" class="node">
<title>TankkaartComponent</title>
<polygon fill="#ffffb3" stroke="black" points="1408.08,-84.8 1269.92,-84.8 1269.92,-48.8 1408.08,-48.8 1408.08,-84.8"/>
<text text-anchor="middle" x="1339" y="-62.6" font-family="Times,serif" font-size="14.00">TankkaartComponent</text>
</g>
<!-- TankkaartComponent&#45;&gt;AppModule -->
<g id="edge7" class="edge">
<title>TankkaartComponent&#45;&gt;AppModule</title>
<path fill="none" stroke="black" d="M1339,-84.99C1339,-99.98 1339,-118.8 1339,-118.8 1339,-118.8 1443.19,-118.8 1443.19,-118.8"/>
<polygon fill="black" stroke="black" points="1443.19,-122.3 1453.19,-118.8 1443.19,-115.3 1443.19,-122.3"/>
</g>
<!-- TankkaartDeleteConfirmationSheetComponent -->
<g id="node8" class="node">
<title>TankkaartDeleteConfirmationSheetComponent</title>
<polygon fill="#ffffb3" stroke="black" points="1251.65,-84.8 970.35,-84.8 970.35,-48.8 1251.65,-48.8 1251.65,-84.8"/>
<text text-anchor="middle" x="1111" y="-62.6" font-family="Times,serif" font-size="14.00">TankkaartDeleteConfirmationSheetComponent</text>
</g>
<!-- TankkaartDeleteConfirmationSheetComponent&#45;&gt;AppModule -->
<g id="edge8" class="edge">
<title>TankkaartDeleteConfirmationSheetComponent&#45;&gt;AppModule</title>
<path fill="none" stroke="black" d="M1111,-84.83C1111,-101.2 1111,-122.8 1111,-122.8 1111,-122.8 1443.17,-122.8 1443.17,-122.8"/>
<polygon fill="black" stroke="black" points="1443.17,-126.3 1453.17,-122.8 1443.17,-119.3 1443.17,-126.3"/>
</g>
<!-- TankkaartDetailDialogComponent -->
<g id="node9" class="node">
<title>TankkaartDetailDialogComponent</title>
<polygon fill="#ffffb3" stroke="black" points="952.39,-84.8 741.61,-84.8 741.61,-48.8 952.39,-48.8 952.39,-84.8"/>
<text text-anchor="middle" x="847" y="-62.6" font-family="Times,serif" font-size="14.00">TankkaartDetailDialogComponent</text>
</g>
<!-- TankkaartDetailDialogComponent&#45;&gt;AppModule -->
<g id="edge9" class="edge">
<title>TankkaartDetailDialogComponent&#45;&gt;AppModule</title>
<path fill="none" stroke="black" d="M847,-85.1C847,-103.07 847,-127.8 847,-127.8 847,-127.8 1442.98,-127.8 1442.98,-127.8"/>
<polygon fill="black" stroke="black" points="1442.98,-131.3 1452.98,-127.8 1442.98,-124.3 1442.98,-131.3"/>
</g>
<!-- TankkaartListComponent -->
<g id="node10" class="node">
<title>TankkaartListComponent</title>
<polygon fill="#ffffb3" stroke="black" points="723.86,-84.8 564.14,-84.8 564.14,-48.8 723.86,-48.8 723.86,-84.8"/>
<text text-anchor="middle" x="644" y="-62.6" font-family="Times,serif" font-size="14.00">TankkaartListComponent</text>
</g>
<!-- TankkaartListComponent&#45;&gt;AppModule -->
<g id="edge10" class="edge">
<title>TankkaartListComponent&#45;&gt;AppModule</title>
<path fill="none" stroke="black" d="M644,-84.91C644,-104.14 644,-131.8 644,-131.8 644,-131.8 1443.09,-131.8 1443.09,-131.8"/>
<polygon fill="black" stroke="black" points="1443.09,-135.3 1453.09,-131.8 1443.09,-128.3 1443.09,-135.3"/>
</g>
<!-- VoertuigComponent -->
<g id="node11" class="node">
<title>VoertuigComponent</title>
<polygon fill="#ffffb3" stroke="black" points="546.6,-84.8 415.4,-84.8 415.4,-48.8 546.6,-48.8 546.6,-84.8"/>
<text text-anchor="middle" x="481" y="-62.6" font-family="Times,serif" font-size="14.00">VoertuigComponent</text>
</g>
<!-- VoertuigComponent&#45;&gt;AppModule -->
<g id="edge11" class="edge">
<title>VoertuigComponent&#45;&gt;AppModule</title>
<path fill="none" stroke="black" d="M481,-84.83C481,-105.57 481,-136.8 481,-136.8 481,-136.8 1443.04,-136.8 1443.04,-136.8"/>
<polygon fill="black" stroke="black" points="1443.04,-140.3 1453.04,-136.8 1443.04,-133.3 1443.04,-140.3"/>
</g>
<!-- VoertuigDetailDialogComponent -->
<g id="node12" class="node">
<title>VoertuigDetailDialogComponent</title>
<polygon fill="#ffffb3" stroke="black" points="397.91,-84.8 194.09,-84.8 194.09,-48.8 397.91,-48.8 397.91,-84.8"/>
<text text-anchor="middle" x="296" y="-62.6" font-family="Times,serif" font-size="14.00">VoertuigDetailDialogComponent</text>
</g>
<!-- VoertuigDetailDialogComponent&#45;&gt;AppModule -->
<g id="edge12" class="edge">
<title>VoertuigDetailDialogComponent&#45;&gt;AppModule</title>
<path fill="none" stroke="black" d="M296,-85.09C296,-107.01 296,-140.8 296,-140.8 296,-140.8 1443.03,-140.8 1443.03,-140.8"/>
<polygon fill="black" stroke="black" points="1443.03,-144.3 1453.03,-140.8 1443.03,-137.3 1443.03,-144.3"/>
</g>
<!-- VoertuigListComponent -->
<g id="node13" class="node">
<title>VoertuigListComponent</title>
<polygon fill="#ffffb3" stroke="black" points="176.38,-84.8 23.62,-84.8 23.62,-48.8 176.38,-48.8 176.38,-84.8"/>
<text text-anchor="middle" x="100" y="-62.6" font-family="Times,serif" font-size="14.00">VoertuigListComponent</text>
</g>
<!-- VoertuigListComponent&#45;&gt;AppModule -->
<g id="edge13" class="edge">
<title>VoertuigListComponent&#45;&gt;AppModule</title>
<path fill="none" stroke="black" d="M100,-85.12C100,-108.46 100,-145.8 100,-145.8 100,-145.8 1443.25,-145.8 1443.25,-145.8"/>
<polygon fill="black" stroke="black" points="1443.25,-149.3 1453.25,-145.8 1443.25,-142.3 1443.25,-149.3"/>
</g>
<!-- Home  -->
<g id="node17" class="node">
<title>Home </title>
<polygon fill="#80b1d3" stroke="black" points="1522,-214.8 1468,-214.8 1468,-178.8 1522,-178.8 1522,-214.8"/>
<text text-anchor="middle" x="1495" y="-192.6" font-family="Times,serif" font-size="14.00">Home </text>
</g>
<!-- AppModule&#45;&gt;Home  -->
<g id="edge16" class="edge">
<title>AppModule&#45;&gt;Home </title>
<path fill="none" stroke="black" stroke-dasharray="1,5" d="M1495,-149.91C1495,-149.91 1495,-168.79 1495,-168.79"/>
<polygon fill="black" stroke="black" points="1491.5,-168.79 1495,-178.79 1498.5,-168.79 1491.5,-168.79"/>
</g>
<!-- AppRoutingModule -->
<g id="node15" class="node">
<title>AppRoutingModule</title>
<polygon fill="#8dd3c7" stroke="black" points="2611.28,-84.8 2608.28,-88.8 2587.28,-88.8 2584.28,-84.8 2482.72,-84.8 2482.72,-48.8 2611.28,-48.8 2611.28,-84.8"/>
<text text-anchor="middle" x="2547" y="-62.6" font-family="Times,serif" font-size="14.00">AppRoutingModule</text>
</g>
<!-- AppRoutingModule&#45;&gt;AppModule -->
<g id="edge14" class="edge">
<title>AppRoutingModule&#45;&gt;AppModule</title>
<path fill="none" stroke="black" d="M2547,-85.12C2547,-108.46 2547,-145.8 2547,-145.8 2547,-145.8 1546.89,-145.8 1546.89,-145.8"/>
<polygon fill="black" stroke="black" points="1546.89,-142.3 1536.89,-145.8 1546.89,-149.3 1546.89,-142.3"/>
</g>
<!-- MaterialModule -->
<g id="node16" class="node">
<title>MaterialModule</title>
<polygon fill="#8dd3c7" stroke="black" points="2464.47,-84.8 2461.47,-88.8 2440.47,-88.8 2437.47,-84.8 2357.53,-84.8 2357.53,-48.8 2464.47,-48.8 2464.47,-84.8"/>
<text text-anchor="middle" x="2411" y="-62.6" font-family="Times,serif" font-size="14.00">MaterialModule</text>
</g>
<!-- MaterialModule&#45;&gt;AppModule -->
<g id="edge15" class="edge">
<title>MaterialModule&#45;&gt;AppModule</title>
<path fill="none" stroke="black" d="M2411,-85.09C2411,-107.01 2411,-140.8 2411,-140.8 2411,-140.8 1546.74,-140.8 1546.74,-140.8"/>
<polygon fill="black" stroke="black" points="1546.74,-137.3 1536.74,-140.8 1546.74,-144.3 1546.74,-137.3"/>
</g>
</g>
</svg>
