<?xml version="1.0" encoding="UTF-8" standalone="no"?>
<!DOCTYPE svg PUBLIC "-//W3C//DTD SVG 1.1//EN"
 "http://www.w3.org/Graphics/SVG/1.1/DTD/svg11.dtd">
<!-- Generated by graphviz version 3.0.0 (20220226.1711)
 -->
<!-- Title: dependencies Pages: 1 -->
<svg width="3058pt" height="247pt"
 viewBox="0.00 0.00 3058.00 246.80" xmlns="http://www.w3.org/2000/svg" xmlns:xlink="http://www.w3.org/1999/xlink">
<g id="graph0" class="graph" transform="scale(1 1) rotate(0) translate(4 242.8)">
<title>dependencies</title>
<polygon fill="white" stroke="transparent" points="-4,4 -4,-242.8 3054,-242.8 3054,4 -4,4"/>
<text text-anchor="middle" x="1525" y="-8.2" font-family="sans-serif" font-size="14.00">dependencies</text>
<g id="clust1" class="cluster">
<title>cluster_AppModule</title>
<polygon fill="none" stroke="black" stroke-dasharray="1,5" points="8,-32.8 8,-230.8 3042,-230.8 3042,-32.8 8,-32.8"/>
</g>
<g id="clust20" class="cluster">
<title>cluster_AppModule_bootstrap</title>
<polygon fill="none" stroke="black" points="1618,-170.8 1618,-222.8 1688,-222.8 1688,-170.8 1618,-170.8"/>
</g>
<g id="clust18" class="cluster">
<title>cluster_AppModule_imports</title>
<polygon fill="none" stroke="black" points="2765,-40.8 2765,-92.8 3034,-92.8 3034,-40.8 2765,-40.8"/>
</g>
<g id="clust2" class="cluster">
<title>cluster_AppModule_declarations</title>
<polygon fill="none" stroke="black" points="16,-40.8 16,-92.8 2757,-92.8 2757,-40.8 16,-40.8"/>
</g>
<!-- BestuurderComponent -->
<g id="node1" class="node">
<title>BestuurderComponent</title>
<polygon fill="#ffffb3" stroke="black" points="2749.26,-84.8 2606.74,-84.8 2606.74,-48.8 2749.26,-48.8 2749.26,-84.8"/>
<text text-anchor="middle" x="2678" y="-62.6" font-family="Times,serif" font-size="14.00">BestuurderComponent</text>
</g>
<!-- AppModule -->
<g id="node16" class="node">
<title>AppModule</title>
<polygon fill="#8dd3c7" stroke="black" points="1694.66,-149.8 1691.66,-153.8 1670.66,-153.8 1667.66,-149.8 1611.34,-149.8 1611.34,-113.8 1694.66,-113.8 1694.66,-149.8"/>
<text text-anchor="middle" x="1653" y="-127.6" font-family="Times,serif" font-size="14.00">AppModule</text>
</g>
<!-- BestuurderComponent&#45;&gt;AppModule -->
<g id="edge1" class="edge">
<title>BestuurderComponent&#45;&gt;AppModule</title>
<path fill="none" stroke="black" d="M2678,-85.08C2678,-106.12 2678,-137.8 2678,-137.8 2678,-137.8 1704.77,-137.8 1704.77,-137.8"/>
<polygon fill="black" stroke="black" points="1704.77,-134.3 1694.77,-137.8 1704.77,-141.3 1704.77,-134.3"/>
</g>
<!-- BestuurderDetailDialogComponent -->
<g id="node2" class="node">
<title>BestuurderDetailDialogComponent</title>
<polygon fill="#ffffb3" stroke="black" points="2588.57,-84.8 2373.43,-84.8 2373.43,-48.8 2588.57,-48.8 2588.57,-84.8"/>
<text text-anchor="middle" x="2481" y="-62.6" font-family="Times,serif" font-size="14.00">BestuurderDetailDialogComponent</text>
</g>
<!-- BestuurderDetailDialogComponent&#45;&gt;AppModule -->
<g id="edge2" class="edge">
<title>BestuurderDetailDialogComponent&#45;&gt;AppModule</title>
<path fill="none" stroke="black" d="M2481,-85.11C2481,-104.95 2481,-133.8 2481,-133.8 2481,-133.8 1704.91,-133.8 1704.91,-133.8"/>
<polygon fill="black" stroke="black" points="1704.91,-130.3 1694.91,-133.8 1704.91,-137.3 1704.91,-130.3"/>
</g>
<!-- BestuurderListComponent -->
<g id="node3" class="node">
<title>BestuurderListComponent</title>
<polygon fill="#ffffb3" stroke="black" points="2355.04,-84.8 2190.96,-84.8 2190.96,-48.8 2355.04,-48.8 2355.04,-84.8"/>
<text text-anchor="middle" x="2273" y="-62.6" font-family="Times,serif" font-size="14.00">BestuurderListComponent</text>
</g>
<!-- BestuurderListComponent&#45;&gt;AppModule -->
<g id="edge3" class="edge">
<title>BestuurderListComponent&#45;&gt;AppModule</title>
<path fill="none" stroke="black" d="M2273,-85.02C2273,-103.63 2273,-129.8 2273,-129.8 2273,-129.8 1705.13,-129.8 1705.13,-129.8"/>
<polygon fill="black" stroke="black" points="1705.13,-126.3 1695.13,-129.8 1705.13,-133.3 1705.13,-126.3"/>
</g>
<!-- DeleteConfirmationSheetComponent -->
<g id="node4" class="node">
<title>DeleteConfirmationSheetComponent</title>
<polygon fill="#ffffb3" stroke="black" points="2173.4,-84.8 1948.6,-84.8 1948.6,-48.8 2173.4,-48.8 2173.4,-84.8"/>
<text text-anchor="middle" x="2061" y="-62.6" font-family="Times,serif" font-size="14.00">DeleteConfirmationSheetComponent</text>
</g>
<!-- DeleteConfirmationSheetComponent&#45;&gt;AppModule -->
<g id="edge4" class="edge">
<title>DeleteConfirmationSheetComponent&#45;&gt;AppModule</title>
<path fill="none" stroke="black" d="M2061,-84.82C2061,-102.17 2061,-125.8 2061,-125.8 2061,-125.8 1704.75,-125.8 1704.75,-125.8"/>
<polygon fill="black" stroke="black" points="1704.75,-122.3 1694.75,-125.8 1704.75,-129.3 1704.75,-122.3"/>
</g>
<!-- Home -->
<g id="node5" class="node">
<title>Home</title>
<polygon fill="#ffffb3" stroke="black" points="1931,-84.8 1877,-84.8 1877,-48.8 1931,-48.8 1931,-84.8"/>
<text text-anchor="middle" x="1904" y="-62.6" font-family="Times,serif" font-size="14.00">Home</text>
</g>
<!-- Home&#45;&gt;AppModule -->
<g id="edge5" class="edge">
<title>Home&#45;&gt;AppModule</title>
<path fill="none" stroke="black" d="M1904,-84.81C1904,-100.85 1904,-121.8 1904,-121.8 1904,-121.8 1704.73,-121.8 1704.73,-121.8"/>
<polygon fill="black" stroke="black" points="1704.73,-118.3 1694.73,-121.8 1704.73,-125.3 1704.73,-118.3"/>
</g>
<!-- HomeComponent -->
<g id="node6" class="node">
<title>HomeComponent</title>
<polygon fill="#ffffb3" stroke="black" points="1858.55,-84.8 1743.45,-84.8 1743.45,-48.8 1858.55,-48.8 1858.55,-84.8"/>
<text text-anchor="middle" x="1801" y="-62.6" font-family="Times,serif" font-size="14.00">HomeComponent</text>
</g>
<!-- HomeComponent&#45;&gt;AppModule -->
<g id="edge6" class="edge">
<title>HomeComponent&#45;&gt;AppModule</title>
<path fill="none" stroke="black" d="M1801,-84.92C1801,-99.58 1801,-117.8 1801,-117.8 1801,-117.8 1705.01,-117.8 1705.01,-117.8"/>
<polygon fill="black" stroke="black" points="1705.02,-114.3 1695.01,-117.8 1705.01,-121.3 1705.02,-114.3"/>
</g>
<!-- NavigationComponent -->
<g id="node7" class="node">
<title>NavigationComponent</title>
<polygon fill="#ffffb3" stroke="black" points="1724.54,-84.8 1581.46,-84.8 1581.46,-48.8 1724.54,-48.8 1724.54,-84.8"/>
<text text-anchor="middle" x="1653" y="-62.6" font-family="Times,serif" font-size="14.00">NavigationComponent</text>
</g>
<!-- NavigationComponent&#45;&gt;AppModule -->
<g id="edge7" class="edge">
<title>NavigationComponent&#45;&gt;AppModule</title>
<path fill="none" stroke="black" d="M1653,-84.91C1653,-84.91 1653,-103.79 1653,-103.79"/>
<polygon fill="black" stroke="black" points="1649.5,-103.79 1653,-113.79 1656.5,-103.79 1649.5,-103.79"/>
</g>
<!-- SearchbarComponent -->
<g id="node8" class="node">
<title>SearchbarComponent</title>
<polygon fill="#ffffb3" stroke="black" points="1563.8,-84.8 1426.2,-84.8 1426.2,-48.8 1563.8,-48.8 1563.8,-84.8"/>
<text text-anchor="middle" x="1495" y="-62.6" font-family="Times,serif" font-size="14.00">SearchbarComponent</text>
</g>
<!-- SearchbarComponent&#45;&gt;AppModule -->
<g id="edge8" class="edge">
<title>SearchbarComponent&#45;&gt;AppModule</title>
<path fill="none" stroke="black" d="M1495,-84.92C1495,-99.58 1495,-117.8 1495,-117.8 1495,-117.8 1601.07,-117.8 1601.07,-117.8"/>
<polygon fill="black" stroke="black" points="1601.07,-121.3 1611.07,-117.8 1601.07,-114.3 1601.07,-121.3"/>
</g>
<!-- TankkaartComponent -->
<g id="node9" class="node">
<title>TankkaartComponent</title>
<polygon fill="#ffffb3" stroke="black" points="1408.08,-84.8 1269.92,-84.8 1269.92,-48.8 1408.08,-48.8 1408.08,-84.8"/>
<text text-anchor="middle" x="1339" y="-62.6" font-family="Times,serif" font-size="14.00">TankkaartComponent</text>
</g>
<!-- TankkaartComponent&#45;&gt;AppModule -->
<g id="edge9" class="edge">
<title>TankkaartComponent&#45;&gt;AppModule</title>
<path fill="none" stroke="black" d="M1339,-84.81C1339,-100.85 1339,-121.8 1339,-121.8 1339,-121.8 1601.3,-121.8 1601.3,-121.8"/>
<polygon fill="black" stroke="black" points="1601.3,-125.3 1611.3,-121.8 1601.3,-118.3 1601.3,-125.3"/>
</g>
<!-- TankkaartDeleteConfirmationSheetComponent -->
<g id="node10" class="node">
<title>TankkaartDeleteConfirmationSheetComponent</title>
<polygon fill="#ffffb3" stroke="black" points="1251.65,-84.8 970.35,-84.8 970.35,-48.8 1251.65,-48.8 1251.65,-84.8"/>
<text text-anchor="middle" x="1111" y="-62.6" font-family="Times,serif" font-size="14.00">TankkaartDeleteConfirmationSheetComponent</text>
</g>
<!-- TankkaartDeleteConfirmationSheetComponent&#45;&gt;AppModule -->
<g id="edge10" class="edge">
<title>TankkaartDeleteConfirmationSheetComponent&#45;&gt;AppModule</title>
<path fill="none" stroke="black" d="M1111,-84.82C1111,-102.17 1111,-125.8 1111,-125.8 1111,-125.8 1600.92,-125.8 1600.92,-125.8"/>
<polygon fill="black" stroke="black" points="1600.92,-129.3 1610.92,-125.8 1600.92,-122.3 1600.92,-129.3"/>
</g>
<!-- TankkaartDetailDialogComponent -->
<g id="node11" class="node">
<title>TankkaartDetailDialogComponent</title>
<polygon fill="#ffffb3" stroke="black" points="952.39,-84.8 741.61,-84.8 741.61,-48.8 952.39,-48.8 952.39,-84.8"/>
<text text-anchor="middle" x="847" y="-62.6" font-family="Times,serif" font-size="14.00">TankkaartDetailDialogComponent</text>
</g>
<!-- TankkaartDetailDialogComponent&#45;&gt;AppModule -->
<g id="edge11" class="edge">
<title>TankkaartDetailDialogComponent&#45;&gt;AppModule</title>
<path fill="none" stroke="black" d="M847,-85.02C847,-103.63 847,-129.8 847,-129.8 847,-129.8 1601.08,-129.8 1601.08,-129.8"/>
<polygon fill="black" stroke="black" points="1601.08,-133.3 1611.08,-129.8 1601.08,-126.3 1601.08,-133.3"/>
</g>
<!-- TankkaartListComponent -->
<g id="node12" class="node">
<title>TankkaartListComponent</title>
<polygon fill="#ffffb3" stroke="black" points="723.86,-84.8 564.14,-84.8 564.14,-48.8 723.86,-48.8 723.86,-84.8"/>
<text text-anchor="middle" x="644" y="-62.6" font-family="Times,serif" font-size="14.00">TankkaartListComponent</text>
</g>
<!-- TankkaartListComponent&#45;&gt;AppModule -->
<g id="edge12" class="edge">
<title>TankkaartListComponent&#45;&gt;AppModule</title>
<path fill="none" stroke="black" d="M644,-85.11C644,-104.95 644,-133.8 644,-133.8 644,-133.8 1601.25,-133.8 1601.25,-133.8"/>
<polygon fill="black" stroke="black" points="1601.25,-137.3 1611.25,-133.8 1601.25,-130.3 1601.25,-137.3"/>
</g>
<!-- VoertuigComponent -->
<g id="node13" class="node">
<title>VoertuigComponent</title>
<polygon fill="#ffffb3" stroke="black" points="546.6,-84.8 415.4,-84.8 415.4,-48.8 546.6,-48.8 546.6,-84.8"/>
<text text-anchor="middle" x="481" y="-62.6" font-family="Times,serif" font-size="14.00">VoertuigComponent</text>
</g>
<!-- VoertuigComponent&#45;&gt;AppModule -->
<g id="edge13" class="edge">
<title>VoertuigComponent&#45;&gt;AppModule</title>
<path fill="none" stroke="black" d="M481,-85.08C481,-106.12 481,-137.8 481,-137.8 481,-137.8 1601.29,-137.8 1601.29,-137.8"/>
<polygon fill="black" stroke="black" points="1601.29,-141.3 1611.29,-137.8 1601.29,-134.3 1601.29,-141.3"/>
</g>
<!-- VoertuigDetailDialogComponent -->
<g id="node14" class="node">
<title>VoertuigDetailDialogComponent</title>
<polygon fill="#ffffb3" stroke="black" points="397.91,-84.8 194.09,-84.8 194.09,-48.8 397.91,-48.8 397.91,-84.8"/>
<text text-anchor="middle" x="296" y="-62.6" font-family="Times,serif" font-size="14.00">VoertuigDetailDialogComponent</text>
</g>
<!-- VoertuigDetailDialogComponent&#45;&gt;AppModule -->
<g id="edge14" class="edge">
<title>VoertuigDetailDialogComponent&#45;&gt;AppModule</title>
<path fill="none" stroke="black" d="M296,-84.96C296,-107.15 296,-141.8 296,-141.8 296,-141.8 1601.27,-141.8 1601.27,-141.8"/>
<polygon fill="black" stroke="black" points="1601.27,-145.3 1611.27,-141.8 1601.27,-138.3 1601.27,-145.3"/>
</g>
<!-- VoertuigListComponent -->
<g id="node15" class="node">
<title>VoertuigListComponent</title>
<polygon fill="#ffffb3" stroke="black" points="176.38,-84.8 23.62,-84.8 23.62,-48.8 176.38,-48.8 176.38,-84.8"/>
<text text-anchor="middle" x="100" y="-62.6" font-family="Times,serif" font-size="14.00">VoertuigListComponent</text>
</g>
<!-- VoertuigListComponent&#45;&gt;AppModule -->
<g id="edge15" class="edge">
<title>VoertuigListComponent&#45;&gt;AppModule</title>
<path fill="none" stroke="black" d="M100,-85.12C100,-108.46 100,-145.8 100,-145.8 100,-145.8 1601.06,-145.8 1601.06,-145.8"/>
<polygon fill="black" stroke="black" points="1601.06,-149.3 1611.06,-145.8 1601.06,-142.3 1601.06,-149.3"/>
</g>
<!-- Home  -->
<g id="node19" class="node">
<title>Home </title>
<polygon fill="#80b1d3" stroke="black" points="1680,-214.8 1626,-214.8 1626,-178.8 1680,-178.8 1680,-214.8"/>
<text text-anchor="middle" x="1653" y="-192.6" font-family="Times,serif" font-size="14.00">Home </text>
</g>
<!-- AppModule&#45;&gt;Home  -->
<g id="edge18" class="edge">
<title>AppModule&#45;&gt;Home </title>
<path fill="none" stroke="black" stroke-dasharray="1,5" d="M1653,-149.91C1653,-149.91 1653,-168.79 1653,-168.79"/>
<polygon fill="black" stroke="black" points="1649.5,-168.79 1653,-178.79 1656.5,-168.79 1649.5,-168.79"/>
</g>
<!-- AppRoutingModule -->
<g id="node17" class="node">
<title>AppRoutingModule</title>
<polygon fill="#8dd3c7" stroke="black" points="3026.28,-84.8 3023.28,-88.8 3002.28,-88.8 2999.28,-84.8 2897.72,-84.8 2897.72,-48.8 3026.28,-48.8 3026.28,-84.8"/>
<text text-anchor="middle" x="2962" y="-62.6" font-family="Times,serif" font-size="14.00">AppRoutingModule</text>
</g>
<!-- AppRoutingModule&#45;&gt;AppModule -->
<g id="edge16" class="edge">
<title>AppRoutingModule&#45;&gt;AppModule</title>
<path fill="none" stroke="black" d="M2962,-85.12C2962,-108.46 2962,-145.8 2962,-145.8 2962,-145.8 1704.7,-145.8 1704.7,-145.8"/>
<polygon fill="black" stroke="black" points="1704.7,-142.3 1694.7,-145.8 1704.7,-149.3 1704.7,-142.3"/>
</g>
<!-- MaterialModule -->
<g id="node18" class="node">
<title>MaterialModule</title>
<polygon fill="#8dd3c7" stroke="black" points="2879.47,-84.8 2876.47,-88.8 2855.47,-88.8 2852.47,-84.8 2772.53,-84.8 2772.53,-48.8 2879.47,-48.8 2879.47,-84.8"/>
<text text-anchor="middle" x="2826" y="-62.6" font-family="Times,serif" font-size="14.00">MaterialModule</text>
</g>
<!-- MaterialModule&#45;&gt;AppModule -->
<g id="edge17" class="edge">
<title>MaterialModule&#45;&gt;AppModule</title>
<path fill="none" stroke="black" d="M2826,-84.96C2826,-107.15 2826,-141.8 2826,-141.8 2826,-141.8 1704.75,-141.8 1704.75,-141.8"/>
<polygon fill="black" stroke="black" points="1704.75,-138.3 1694.75,-141.8 1704.75,-145.3 1704.75,-138.3"/>
</g>
</g>
</svg>
