<?xml version="1.0" encoding="UTF-8" standalone="no"?>
<!DOCTYPE svg PUBLIC "-//W3C//DTD SVG 1.1//EN"
 "http://www.w3.org/Graphics/SVG/1.1/DTD/svg11.dtd">
<!-- Generated by graphviz version 3.0.0 (20220226.1711)
 -->
<!-- Title: dependencies Pages: 1 -->
<svg width="2343pt" height="247pt"
 viewBox="0.00 0.00 2343.00 246.80" xmlns="http://www.w3.org/2000/svg" xmlns:xlink="http://www.w3.org/1999/xlink">
<g id="graph0" class="graph" transform="scale(1 1) rotate(0) translate(4 242.8)">
<title>dependencies</title>
<polygon fill="white" stroke="transparent" points="-4,4 -4,-242.8 2339,-242.8 2339,4 -4,4"/>
<text text-anchor="middle" x="1167.5" y="-8.2" font-family="sans-serif" font-size="14.00">dependencies</text>
<g id="clust1" class="cluster">
<title>cluster_AppModule</title>
<polygon fill="none" stroke="black" stroke-dasharray="1,5" points="8,-32.8 8,-230.8 2327,-230.8 2327,-32.8 8,-32.8"/>
</g>
<g id="clust15" class="cluster">
<title>cluster_AppModule_imports</title>
<polygon fill="none" stroke="black" points="2050,-40.8 2050,-92.8 2319,-92.8 2319,-40.8 2050,-40.8"/>
</g>
<g id="clust17" class="cluster">
<title>cluster_AppModule_bootstrap</title>
<polygon fill="none" stroke="black" points="1239,-170.8 1239,-222.8 1309,-222.8 1309,-170.8 1239,-170.8"/>
</g>
<g id="clust2" class="cluster">
<title>cluster_AppModule_declarations</title>
<polygon fill="none" stroke="black" points="16,-40.8 16,-92.8 2042,-92.8 2042,-40.8 16,-40.8"/>
</g>
<!-- BestuurderComponent -->
<g id="node1" class="node">
<title>BestuurderComponent</title>
<polygon fill="#ffffb3" stroke="black" points="2034.26,-84.8 1891.74,-84.8 1891.74,-48.8 2034.26,-48.8 2034.26,-84.8"/>
<text text-anchor="middle" x="1963" y="-62.6" font-family="Times,serif" font-size="14.00">BestuurderComponent</text>
</g>
<!-- AppModule -->
<g id="node13" class="node">
<title>AppModule</title>
<polygon fill="#8dd3c7" stroke="black" points="1315.66,-149.8 1312.66,-153.8 1291.66,-153.8 1288.66,-149.8 1232.34,-149.8 1232.34,-113.8 1315.66,-113.8 1315.66,-149.8"/>
<text text-anchor="middle" x="1274" y="-127.6" font-family="Times,serif" font-size="14.00">AppModule</text>
</g>
<!-- BestuurderComponent&#45;&gt;AppModule -->
<g id="edge1" class="edge">
<title>BestuurderComponent&#45;&gt;AppModule</title>
<path fill="none" stroke="black" d="M1963,-85.02C1963,-105.17 1963,-134.8 1963,-134.8 1963,-134.8 1325.81,-134.8 1325.81,-134.8"/>
<polygon fill="black" stroke="black" points="1325.81,-131.3 1315.81,-134.8 1325.81,-138.3 1325.81,-131.3"/>
</g>
<!-- DeleteConfirmationSheetComponent -->
<g id="node2" class="node">
<title>DeleteConfirmationSheetComponent</title>
<polygon fill="#ffffb3" stroke="black" points="1873.4,-84.8 1648.6,-84.8 1648.6,-48.8 1873.4,-48.8 1873.4,-84.8"/>
<text text-anchor="middle" x="1761" y="-62.6" font-family="Times,serif" font-size="14.00">DeleteConfirmationSheetComponent</text>
</g>
<!-- DeleteConfirmationSheetComponent&#45;&gt;AppModule -->
<g id="edge2" class="edge">
<title>DeleteConfirmationSheetComponent&#45;&gt;AppModule</title>
<path fill="none" stroke="black" d="M1761,-85.02C1761,-103.63 1761,-129.8 1761,-129.8 1761,-129.8 1325.94,-129.8 1325.94,-129.8"/>
<polygon fill="black" stroke="black" points="1325.94,-126.3 1315.94,-129.8 1325.94,-133.3 1325.94,-126.3"/>
</g>
<!-- Home -->
<g id="node3" class="node">
<title>Home</title>
<polygon fill="#ffffb3" stroke="black" points="1631,-84.8 1577,-84.8 1577,-48.8 1631,-48.8 1631,-84.8"/>
<text text-anchor="middle" x="1604" y="-62.6" font-family="Times,serif" font-size="14.00">Home</text>
</g>
<!-- Home&#45;&gt;AppModule -->
<g id="edge3" class="edge">
<title>Home&#45;&gt;AppModule</title>
<path fill="none" stroke="black" d="M1604,-84.83C1604,-101.86 1604,-124.8 1604,-124.8 1604,-124.8 1325.79,-124.8 1325.79,-124.8"/>
<polygon fill="black" stroke="black" points="1325.79,-121.3 1315.79,-124.8 1325.79,-128.3 1325.79,-121.3"/>
</g>
<!-- HomeComponent -->
<g id="node4" class="node">
<title>HomeComponent</title>
<polygon fill="#ffffb3" stroke="black" points="1558.55,-84.8 1443.45,-84.8 1443.45,-48.8 1558.55,-48.8 1558.55,-84.8"/>
<text text-anchor="middle" x="1501" y="-62.6" font-family="Times,serif" font-size="14.00">HomeComponent</text>
</g>
<!-- HomeComponent&#45;&gt;AppModule -->
<g id="edge4" class="edge">
<title>HomeComponent&#45;&gt;AppModule</title>
<path fill="none" stroke="black" d="M1501,-85.04C1501,-100.37 1501,-119.8 1501,-119.8 1501,-119.8 1325.9,-119.8 1325.9,-119.8"/>
<polygon fill="black" stroke="black" points="1325.9,-116.3 1315.9,-119.8 1325.9,-123.3 1325.9,-116.3"/>
</g>
<!-- NavigationComponent -->
<g id="node5" class="node">
<title>NavigationComponent</title>
<polygon fill="#ffffb3" stroke="black" points="1424.54,-84.8 1281.46,-84.8 1281.46,-48.8 1424.54,-48.8 1424.54,-84.8"/>
<text text-anchor="middle" x="1353" y="-62.6" font-family="Times,serif" font-size="14.00">NavigationComponent</text>
</g>
<!-- NavigationComponent&#45;&gt;AppModule -->
<g id="edge5" class="edge">
<title>NavigationComponent&#45;&gt;AppModule</title>
<path fill="none" stroke="black" d="M1298.53,-84.91C1298.53,-84.91 1298.53,-103.79 1298.53,-103.79"/>
<polygon fill="black" stroke="black" points="1295.03,-103.79 1298.53,-113.79 1302.03,-103.79 1295.03,-103.79"/>
</g>
<!-- SearchbarComponent -->
<g id="node6" class="node">
<title>SearchbarComponent</title>
<polygon fill="#ffffb3" stroke="black" points="1263.8,-84.8 1126.2,-84.8 1126.2,-48.8 1263.8,-48.8 1263.8,-84.8"/>
<text text-anchor="middle" x="1195" y="-62.6" font-family="Times,serif" font-size="14.00">SearchbarComponent</text>
</g>
<!-- SearchbarComponent&#45;&gt;AppModule -->
<g id="edge6" class="edge">
<title>SearchbarComponent&#45;&gt;AppModule</title>
<path fill="none" stroke="black" d="M1247.91,-84.91C1247.91,-84.91 1247.91,-103.79 1247.91,-103.79"/>
<polygon fill="black" stroke="black" points="1244.41,-103.79 1247.91,-113.79 1251.41,-103.79 1244.41,-103.79"/>
</g>
<!-- TankkaartComponent -->
<g id="node7" class="node">
<title>TankkaartComponent</title>
<polygon fill="#ffffb3" stroke="black" points="1108.08,-84.8 969.92,-84.8 969.92,-48.8 1108.08,-48.8 1108.08,-84.8"/>
<text text-anchor="middle" x="1039" y="-62.6" font-family="Times,serif" font-size="14.00">TankkaartComponent</text>
</g>
<!-- TankkaartComponent&#45;&gt;AppModule -->
<g id="edge7" class="edge">
<title>TankkaartComponent&#45;&gt;AppModule</title>
<path fill="none" stroke="black" d="M1039,-85.04C1039,-100.37 1039,-119.8 1039,-119.8 1039,-119.8 1222.26,-119.8 1222.26,-119.8"/>
<polygon fill="black" stroke="black" points="1222.26,-123.3 1232.26,-119.8 1222.26,-116.3 1222.26,-123.3"/>
</g>
<!-- TankkaartDetailDialogComponent -->
<g id="node8" class="node">
<title>TankkaartDetailDialogComponent</title>
<polygon fill="#ffffb3" stroke="black" points="952.39,-84.8 741.61,-84.8 741.61,-48.8 952.39,-48.8 952.39,-84.8"/>
<text text-anchor="middle" x="847" y="-62.6" font-family="Times,serif" font-size="14.00">TankkaartDetailDialogComponent</text>
</g>
<!-- TankkaartDetailDialogComponent&#45;&gt;AppModule -->
<g id="edge8" class="edge">
<title>TankkaartDetailDialogComponent&#45;&gt;AppModule</title>
<path fill="none" stroke="black" d="M847,-84.83C847,-101.86 847,-124.8 847,-124.8 847,-124.8 1222.28,-124.8 1222.28,-124.8"/>
<polygon fill="black" stroke="black" points="1222.28,-128.3 1232.28,-124.8 1222.28,-121.3 1222.28,-128.3"/>
</g>
<!-- TankkaartListComponent -->
<g id="node9" class="node">
<title>TankkaartListComponent</title>
<polygon fill="#ffffb3" stroke="black" points="723.86,-84.8 564.14,-84.8 564.14,-48.8 723.86,-48.8 723.86,-84.8"/>
<text text-anchor="middle" x="644" y="-62.6" font-family="Times,serif" font-size="14.00">TankkaartListComponent</text>
</g>
<!-- TankkaartListComponent&#45;&gt;AppModule -->
<g id="edge9" class="edge">
<title>TankkaartListComponent&#45;&gt;AppModule</title>
<path fill="none" stroke="black" d="M644,-85.02C644,-103.63 644,-129.8 644,-129.8 644,-129.8 1222.18,-129.8 1222.18,-129.8"/>
<polygon fill="black" stroke="black" points="1222.18,-133.3 1232.18,-129.8 1222.18,-126.3 1222.18,-133.3"/>
</g>
<!-- VoertuigComponent -->
<g id="node10" class="node">
<title>VoertuigComponent</title>
<polygon fill="#ffffb3" stroke="black" points="546.6,-84.8 415.4,-84.8 415.4,-48.8 546.6,-48.8 546.6,-84.8"/>
<text text-anchor="middle" x="481" y="-62.6" font-family="Times,serif" font-size="14.00">VoertuigComponent</text>
</g>
<!-- VoertuigComponent&#45;&gt;AppModule -->
<g id="edge10" class="edge">
<title>VoertuigComponent&#45;&gt;AppModule</title>
<path fill="none" stroke="black" d="M481,-85.02C481,-105.17 481,-134.8 481,-134.8 481,-134.8 1222.2,-134.8 1222.2,-134.8"/>
<polygon fill="black" stroke="black" points="1222.2,-138.3 1232.2,-134.8 1222.2,-131.3 1222.2,-138.3"/>
</g>
<!-- VoertuigDetailDialogComponent -->
<g id="node11" class="node">
<title>VoertuigDetailDialogComponent</title>
<polygon fill="#ffffb3" stroke="black" points="397.91,-84.8 194.09,-84.8 194.09,-48.8 397.91,-48.8 397.91,-84.8"/>
<text text-anchor="middle" x="296" y="-62.6" font-family="Times,serif" font-size="14.00">VoertuigDetailDialogComponent</text>
</g>
<!-- VoertuigDetailDialogComponent&#45;&gt;AppModule -->
<g id="edge11" class="edge">
<title>VoertuigDetailDialogComponent&#45;&gt;AppModule</title>
<path fill="none" stroke="black" d="M296,-84.84C296,-106.46 296,-139.8 296,-139.8 296,-139.8 1222.29,-139.8 1222.29,-139.8"/>
<polygon fill="black" stroke="black" points="1222.29,-143.3 1232.29,-139.8 1222.29,-136.3 1222.29,-143.3"/>
</g>
<!-- VoertuigListComponent -->
<g id="node12" class="node">
<title>VoertuigListComponent</title>
<polygon fill="#ffffb3" stroke="black" points="176.38,-84.8 23.62,-84.8 23.62,-48.8 176.38,-48.8 176.38,-84.8"/>
<text text-anchor="middle" x="100" y="-62.6" font-family="Times,serif" font-size="14.00">VoertuigListComponent</text>
</g>
<!-- VoertuigListComponent&#45;&gt;AppModule -->
<g id="edge12" class="edge">
<title>VoertuigListComponent&#45;&gt;AppModule</title>
<path fill="none" stroke="black" d="M100,-84.89C100,-107.93 100,-144.8 100,-144.8 100,-144.8 1222.22,-144.8 1222.22,-144.8"/>
<polygon fill="black" stroke="black" points="1222.22,-148.3 1232.22,-144.8 1222.22,-141.3 1222.22,-148.3"/>
</g>
<!-- Home  -->
<g id="node16" class="node">
<title>Home </title>
<polygon fill="#80b1d3" stroke="black" points="1301,-214.8 1247,-214.8 1247,-178.8 1301,-178.8 1301,-214.8"/>
<text text-anchor="middle" x="1274" y="-192.6" font-family="Times,serif" font-size="14.00">Home </text>
</g>
<!-- AppModule&#45;&gt;Home  -->
<g id="edge15" class="edge">
<title>AppModule&#45;&gt;Home </title>
<path fill="none" stroke="black" stroke-dasharray="1,5" d="M1274,-149.91C1274,-149.91 1274,-168.79 1274,-168.79"/>
<polygon fill="black" stroke="black" points="1270.5,-168.79 1274,-178.79 1277.5,-168.79 1270.5,-168.79"/>
</g>
<!-- AppRoutingModule -->
<g id="node14" class="node">
<title>AppRoutingModule</title>
<polygon fill="#8dd3c7" stroke="black" points="2311.28,-84.8 2308.28,-88.8 2287.28,-88.8 2284.28,-84.8 2182.72,-84.8 2182.72,-48.8 2311.28,-48.8 2311.28,-84.8"/>
<text text-anchor="middle" x="2247" y="-62.6" font-family="Times,serif" font-size="14.00">AppRoutingModule</text>
</g>
<!-- AppRoutingModule&#45;&gt;AppModule -->
<g id="edge13" class="edge">
<title>AppRoutingModule&#45;&gt;AppModule</title>
<path fill="none" stroke="black" d="M2247,-84.89C2247,-107.93 2247,-144.8 2247,-144.8 2247,-144.8 1325.81,-144.8 1325.81,-144.8"/>
<polygon fill="black" stroke="black" points="1325.81,-141.3 1315.81,-144.8 1325.81,-148.3 1325.81,-141.3"/>
</g>
<!-- MaterialModule -->
<g id="node15" class="node">
<title>MaterialModule</title>
<polygon fill="#8dd3c7" stroke="black" points="2164.47,-84.8 2161.47,-88.8 2140.47,-88.8 2137.47,-84.8 2057.53,-84.8 2057.53,-48.8 2164.47,-48.8 2164.47,-84.8"/>
<text text-anchor="middle" x="2111" y="-62.6" font-family="Times,serif" font-size="14.00">MaterialModule</text>
</g>
<!-- MaterialModule&#45;&gt;AppModule -->
<g id="edge14" class="edge">
<title>MaterialModule&#45;&gt;AppModule</title>
<path fill="none" stroke="black" d="M2111,-84.84C2111,-106.46 2111,-139.8 2111,-139.8 2111,-139.8 1325.79,-139.8 1325.79,-139.8"/>
<polygon fill="black" stroke="black" points="1325.79,-136.3 1315.79,-139.8 1325.79,-143.3 1325.79,-136.3"/>
</g>
</g>
</svg>
