<?xml version="1.0" encoding="UTF-8" standalone="no"?>
<!DOCTYPE svg PUBLIC "-//W3C//DTD SVG 1.1//EN"
 "http://www.w3.org/Graphics/SVG/1.1/DTD/svg11.dtd">
<!-- Generated by graphviz version 3.0.0 (20220226.1711)
 -->
<!-- Title: dependencies Pages: 1 -->
<svg width="2643pt" height="247pt"
 viewBox="0.00 0.00 2643.00 246.80" xmlns="http://www.w3.org/2000/svg" xmlns:xlink="http://www.w3.org/1999/xlink">
<g id="graph0" class="graph" transform="scale(1 1) rotate(0) translate(4 242.8)">
<title>dependencies</title>
<polygon fill="white" stroke="transparent" points="-4,4 -4,-242.8 2639,-242.8 2639,4 -4,4"/>
<text text-anchor="middle" x="1317.5" y="-8.2" font-family="sans-serif" font-size="14.00">dependencies</text>
<g id="clust1" class="cluster">
<title>cluster_AppModule</title>
<polygon fill="none" stroke="black" stroke-dasharray="1,5" points="8,-32.8 8,-230.8 2627,-230.8 2627,-32.8 8,-32.8"/>
</g>
<g id="clust2" class="cluster">
<title>cluster_AppModule_declarations</title>
<polygon fill="none" stroke="black" points="293,-40.8 293,-92.8 2619,-92.8 2619,-40.8 293,-40.8"/>
</g>
<g id="clust16" class="cluster">
<title>cluster_AppModule_imports</title>
<polygon fill="none" stroke="black" points="16,-40.8 16,-92.8 285,-92.8 285,-40.8 16,-40.8"/>
</g>
<g id="clust18" class="cluster">
<title>cluster_AppModule_bootstrap</title>
<polygon fill="none" stroke="black" points="1353,-170.8 1353,-222.8 1423,-222.8 1423,-170.8 1353,-170.8"/>
</g>
<!-- BestuurderComponent -->
<g id="node1" class="node">
<title>BestuurderComponent</title>
<polygon fill="#ffffb3" stroke="black" points="2611.26,-84.8 2468.74,-84.8 2468.74,-48.8 2611.26,-48.8 2611.26,-84.8"/>
<text text-anchor="middle" x="2540" y="-62.6" font-family="Times,serif" font-size="14.00">BestuurderComponent</text>
</g>
<!-- AppModule -->
<g id="node14" class="node">
<title>AppModule</title>
<polygon fill="#8dd3c7" stroke="black" points="1429.66,-149.8 1426.66,-153.8 1405.66,-153.8 1402.66,-149.8 1346.34,-149.8 1346.34,-113.8 1429.66,-113.8 1429.66,-149.8"/>
<text text-anchor="middle" x="1388" y="-127.6" font-family="Times,serif" font-size="14.00">AppModule</text>
</g>
<!-- BestuurderComponent&#45;&gt;AppModule -->
<g id="edge1" class="edge">
<title>BestuurderComponent&#45;&gt;AppModule</title>
<path fill="none" stroke="black" d="M2540,-85.12C2540,-108.46 2540,-145.8 2540,-145.8 2540,-145.8 1439.68,-145.8 1439.68,-145.8"/>
<polygon fill="black" stroke="black" points="1439.68,-142.3 1429.68,-145.8 1439.68,-149.3 1439.68,-142.3"/>
</g>
<!-- DeleteConfirmationSheetComponent -->
<g id="node2" class="node">
<title>DeleteConfirmationSheetComponent</title>
<polygon fill="#ffffb3" stroke="black" points="2450.4,-84.8 2225.6,-84.8 2225.6,-48.8 2450.4,-48.8 2450.4,-84.8"/>
<text text-anchor="middle" x="2338" y="-62.6" font-family="Times,serif" font-size="14.00">DeleteConfirmationSheetComponent</text>
</g>
<!-- DeleteConfirmationSheetComponent&#45;&gt;AppModule -->
<g id="edge2" class="edge">
<title>DeleteConfirmationSheetComponent&#45;&gt;AppModule</title>
<path fill="none" stroke="black" d="M2338,-85.09C2338,-107.01 2338,-140.8 2338,-140.8 2338,-140.8 1439.74,-140.8 1439.74,-140.8"/>
<polygon fill="black" stroke="black" points="1439.74,-137.3 1429.74,-140.8 1439.74,-144.3 1439.74,-137.3"/>
</g>
<!-- Home -->
<g id="node3" class="node">
<title>Home</title>
<polygon fill="#ffffb3" stroke="black" points="2208,-84.8 2154,-84.8 2154,-48.8 2208,-48.8 2208,-84.8"/>
<text text-anchor="middle" x="2181" y="-62.6" font-family="Times,serif" font-size="14.00">Home</text>
</g>
<!-- Home&#45;&gt;AppModule -->
<g id="edge3" class="edge">
<title>Home&#45;&gt;AppModule</title>
<path fill="none" stroke="black" d="M2181,-84.83C2181,-105.57 2181,-136.8 2181,-136.8 2181,-136.8 1439.8,-136.8 1439.8,-136.8"/>
<polygon fill="black" stroke="black" points="1439.8,-133.3 1429.8,-136.8 1439.8,-140.3 1439.8,-133.3"/>
</g>
<!-- HomeComponent -->
<g id="node4" class="node">
<title>HomeComponent</title>
<polygon fill="#ffffb3" stroke="black" points="2135.55,-84.8 2020.45,-84.8 2020.45,-48.8 2135.55,-48.8 2135.55,-84.8"/>
<text text-anchor="middle" x="2078" y="-62.6" font-family="Times,serif" font-size="14.00">HomeComponent</text>
</g>
<!-- HomeComponent&#45;&gt;AppModule -->
<g id="edge4" class="edge">
<title>HomeComponent&#45;&gt;AppModule</title>
<path fill="none" stroke="black" d="M2078,-84.91C2078,-104.14 2078,-131.8 2078,-131.8 2078,-131.8 1439.87,-131.8 1439.87,-131.8"/>
<polygon fill="black" stroke="black" points="1439.87,-128.3 1429.87,-131.8 1439.87,-135.3 1439.87,-128.3"/>
</g>
<!-- NavigationComponent -->
<g id="node5" class="node">
<title>NavigationComponent</title>
<polygon fill="#ffffb3" stroke="black" points="2001.54,-84.8 1858.46,-84.8 1858.46,-48.8 2001.54,-48.8 2001.54,-84.8"/>
<text text-anchor="middle" x="1930" y="-62.6" font-family="Times,serif" font-size="14.00">NavigationComponent</text>
</g>
<!-- NavigationComponent&#45;&gt;AppModule -->
<g id="edge5" class="edge">
<title>NavigationComponent&#45;&gt;AppModule</title>
<path fill="none" stroke="black" d="M1930,-85.1C1930,-103.07 1930,-127.8 1930,-127.8 1930,-127.8 1440.08,-127.8 1440.08,-127.8"/>
<polygon fill="black" stroke="black" points="1440.08,-124.3 1430.08,-127.8 1440.08,-131.3 1440.08,-124.3"/>
</g>
<!-- SearchbarComponent -->
<g id="node6" class="node">
<title>SearchbarComponent</title>
<polygon fill="#ffffb3" stroke="black" points="1840.8,-84.8 1703.2,-84.8 1703.2,-48.8 1840.8,-48.8 1840.8,-84.8"/>
<text text-anchor="middle" x="1772" y="-62.6" font-family="Times,serif" font-size="14.00">SearchbarComponent</text>
</g>
<!-- SearchbarComponent&#45;&gt;AppModule -->
<g id="edge6" class="edge">
<title>SearchbarComponent&#45;&gt;AppModule</title>
<path fill="none" stroke="black" d="M1772,-84.83C1772,-101.2 1772,-122.8 1772,-122.8 1772,-122.8 1439.83,-122.8 1439.83,-122.8"/>
<polygon fill="black" stroke="black" points="1439.83,-119.3 1429.83,-122.8 1439.83,-126.3 1439.83,-119.3"/>
</g>
<!-- TankkaartComponent -->
<g id="node7" class="node">
<title>TankkaartComponent</title>
<polygon fill="#ffffb3" stroke="black" points="1685.08,-84.8 1546.92,-84.8 1546.92,-48.8 1685.08,-48.8 1685.08,-84.8"/>
<text text-anchor="middle" x="1616" y="-62.6" font-family="Times,serif" font-size="14.00">TankkaartComponent</text>
</g>
<!-- TankkaartComponent&#45;&gt;AppModule -->
<g id="edge7" class="edge">
<title>TankkaartComponent&#45;&gt;AppModule</title>
<path fill="none" stroke="black" d="M1616,-84.99C1616,-99.98 1616,-118.8 1616,-118.8 1616,-118.8 1439.82,-118.8 1439.82,-118.8"/>
<polygon fill="black" stroke="black" points="1439.82,-115.3 1429.82,-118.8 1439.82,-122.3 1439.82,-115.3"/>
</g>
<!-- TankkaartDeleteConfirmationSheetComponent -->
<g id="node8" class="node">
<title>TankkaartDeleteConfirmationSheetComponent</title>
<polygon fill="#ffffb3" stroke="black" points="1528.65,-84.8 1247.35,-84.8 1247.35,-48.8 1528.65,-48.8 1528.65,-84.8"/>
<text text-anchor="middle" x="1388" y="-62.6" font-family="Times,serif" font-size="14.00">TankkaartDeleteConfirmationSheetComponent</text>
</g>
<!-- TankkaartDeleteConfirmationSheetComponent&#45;&gt;AppModule -->
<g id="edge8" class="edge">
<title>TankkaartDeleteConfirmationSheetComponent&#45;&gt;AppModule</title>
<path fill="none" stroke="black" d="M1388,-84.91C1388,-84.91 1388,-103.79 1388,-103.79"/>
<polygon fill="black" stroke="black" points="1384.5,-103.79 1388,-113.79 1391.5,-103.79 1384.5,-103.79"/>
</g>
<!-- TankkaartDetailDialogComponent -->
<g id="node9" class="node">
<title>TankkaartDetailDialogComponent</title>
<polygon fill="#ffffb3" stroke="black" points="1229.39,-84.8 1018.61,-84.8 1018.61,-48.8 1229.39,-48.8 1229.39,-84.8"/>
<text text-anchor="middle" x="1124" y="-62.6" font-family="Times,serif" font-size="14.00">TankkaartDetailDialogComponent</text>
</g>
<!-- TankkaartDetailDialogComponent&#45;&gt;AppModule -->
<g id="edge9" class="edge">
<title>TankkaartDetailDialogComponent&#45;&gt;AppModule</title>
<path fill="none" stroke="black" d="M1124,-84.99C1124,-99.98 1124,-118.8 1124,-118.8 1124,-118.8 1336.17,-118.8 1336.17,-118.8"/>
<polygon fill="black" stroke="black" points="1336.17,-122.3 1346.17,-118.8 1336.17,-115.3 1336.17,-122.3"/>
</g>
<!-- TankkaartListComponent -->
<g id="node10" class="node">
<title>TankkaartListComponent</title>
<polygon fill="#ffffb3" stroke="black" points="1000.86,-84.8 841.14,-84.8 841.14,-48.8 1000.86,-48.8 1000.86,-84.8"/>
<text text-anchor="middle" x="921" y="-62.6" font-family="Times,serif" font-size="14.00">TankkaartListComponent</text>
</g>
<!-- TankkaartListComponent&#45;&gt;AppModule -->
<g id="edge10" class="edge">
<title>TankkaartListComponent&#45;&gt;AppModule</title>
<path fill="none" stroke="black" d="M921,-84.83C921,-101.2 921,-122.8 921,-122.8 921,-122.8 1336.15,-122.8 1336.15,-122.8"/>
<polygon fill="black" stroke="black" points="1336.15,-126.3 1346.15,-122.8 1336.15,-119.3 1336.15,-126.3"/>
</g>
<!-- VoertuigComponent -->
<g id="node11" class="node">
<title>VoertuigComponent</title>
<polygon fill="#ffffb3" stroke="black" points="823.6,-84.8 692.4,-84.8 692.4,-48.8 823.6,-48.8 823.6,-84.8"/>
<text text-anchor="middle" x="758" y="-62.6" font-family="Times,serif" font-size="14.00">VoertuigComponent</text>
</g>
<!-- VoertuigComponent&#45;&gt;AppModule -->
<g id="edge11" class="edge">
<title>VoertuigComponent&#45;&gt;AppModule</title>
<path fill="none" stroke="black" d="M758,-85.1C758,-103.07 758,-127.8 758,-127.8 758,-127.8 1336.18,-127.8 1336.18,-127.8"/>
<polygon fill="black" stroke="black" points="1336.18,-131.3 1346.18,-127.8 1336.18,-124.3 1336.18,-131.3"/>
</g>
<!-- VoertuigDetailDialogComponent -->
<g id="node12" class="node">
<title>VoertuigDetailDialogComponent</title>
<polygon fill="#ffffb3" stroke="black" points="674.91,-84.8 471.09,-84.8 471.09,-48.8 674.91,-48.8 674.91,-84.8"/>
<text text-anchor="middle" x="573" y="-62.6" font-family="Times,serif" font-size="14.00">VoertuigDetailDialogComponent</text>
</g>
<!-- VoertuigDetailDialogComponent&#45;&gt;AppModule -->
<g id="edge12" class="edge">
<title>VoertuigDetailDialogComponent&#45;&gt;AppModule</title>
<path fill="none" stroke="black" d="M573,-84.91C573,-104.14 573,-131.8 573,-131.8 573,-131.8 1336.18,-131.8 1336.18,-131.8"/>
<polygon fill="black" stroke="black" points="1336.18,-135.3 1346.18,-131.8 1336.18,-128.3 1336.18,-135.3"/>
</g>
<!-- VoertuigListComponent -->
<g id="node13" class="node">
<title>VoertuigListComponent</title>
<polygon fill="#ffffb3" stroke="black" points="453.38,-84.8 300.62,-84.8 300.62,-48.8 453.38,-48.8 453.38,-84.8"/>
<text text-anchor="middle" x="377" y="-62.6" font-family="Times,serif" font-size="14.00">VoertuigListComponent</text>
</g>
<!-- VoertuigListComponent&#45;&gt;AppModule -->
<g id="edge13" class="edge">
<title>VoertuigListComponent&#45;&gt;AppModule</title>
<path fill="none" stroke="black" d="M377,-84.83C377,-105.57 377,-136.8 377,-136.8 377,-136.8 1336.16,-136.8 1336.16,-136.8"/>
<polygon fill="black" stroke="black" points="1336.16,-140.3 1346.16,-136.8 1336.16,-133.3 1336.16,-140.3"/>
</g>
<!-- Home  -->
<g id="node17" class="node">
<title>Home </title>
<polygon fill="#80b1d3" stroke="black" points="1415,-214.8 1361,-214.8 1361,-178.8 1415,-178.8 1415,-214.8"/>
<text text-anchor="middle" x="1388" y="-192.6" font-family="Times,serif" font-size="14.00">Home </text>
</g>
<!-- AppModule&#45;&gt;Home  -->
<g id="edge16" class="edge">
<title>AppModule&#45;&gt;Home </title>
<path fill="none" stroke="black" stroke-dasharray="1,5" d="M1388,-149.91C1388,-149.91 1388,-168.79 1388,-168.79"/>
<polygon fill="black" stroke="black" points="1384.5,-168.79 1388,-178.79 1391.5,-168.79 1384.5,-168.79"/>
</g>
<!-- AppRoutingModule -->
<g id="node15" class="node">
<title>AppRoutingModule</title>
<polygon fill="#8dd3c7" stroke="black" points="277.28,-84.8 274.28,-88.8 253.28,-88.8 250.28,-84.8 148.72,-84.8 148.72,-48.8 277.28,-48.8 277.28,-84.8"/>
<text text-anchor="middle" x="213" y="-62.6" font-family="Times,serif" font-size="14.00">AppRoutingModule</text>
</g>
<!-- AppRoutingModule&#45;&gt;AppModule -->
<g id="edge14" class="edge">
<title>AppRoutingModule&#45;&gt;AppModule</title>
<path fill="none" stroke="black" d="M213,-85.09C213,-107.01 213,-140.8 213,-140.8 213,-140.8 1336.18,-140.8 1336.18,-140.8"/>
<polygon fill="black" stroke="black" points="1336.18,-144.3 1346.18,-140.8 1336.18,-137.3 1336.18,-144.3"/>
</g>
<!-- MaterialModule -->
<g id="node16" class="node">
<title>MaterialModule</title>
<polygon fill="#8dd3c7" stroke="black" points="130.47,-84.8 127.47,-88.8 106.47,-88.8 103.47,-84.8 23.53,-84.8 23.53,-48.8 130.47,-48.8 130.47,-84.8"/>
<text text-anchor="middle" x="77" y="-62.6" font-family="Times,serif" font-size="14.00">MaterialModule</text>
</g>
<!-- MaterialModule&#45;&gt;AppModule -->
<g id="edge15" class="edge">
<title>MaterialModule&#45;&gt;AppModule</title>
<path fill="none" stroke="black" d="M77,-85.12C77,-108.46 77,-145.8 77,-145.8 77,-145.8 1336.23,-145.8 1336.23,-145.8"/>
<polygon fill="black" stroke="black" points="1336.23,-149.3 1346.23,-145.8 1336.23,-142.3 1336.23,-149.3"/>
</g>
</g>
</svg>
